<?xml version="1.0" encoding="utf-8"?>
<svg version="1.1" id="Layer_1"
xmlns="http://www.w3.org/2000/svg"
xmlns:xlink="http://www.w3.org/1999/xlink"
width="506px" height="155px"
xml:space="preserve">
<filter id="filter7" x="-0.52581" y="-0.52581" width="2.23162" height="2.23162" >
<feComponentTransfer in="SourceGraphic">
	<feFuncR type="linear" slope="0"/>
	<feFuncG type="linear" slope="0"/>
	<feFuncB type="linear" slope="0"/>
</feComponentTransfer>
<feGaussianBlur stdDeviation="0.8 0.8" />
<feOffset result="1" dx="6.55322" dy="4.5886"/>
<feComponentTransfer in="SourceGraphic">
	<feFuncR type="linear" slope="0"/>
	<feFuncG type="linear" slope="0"/>
	<feFuncB type="linear" slope="0"/>
</feComponentTransfer>
<feGaussianBlur stdDeviation="0.8 0.8" />
<feOffset result="2" dx="-6.55322" dy="-4.5886"/>
<feComposite  in="1" in2="2" operator="arithmetic" k2="1" k3="-1"/>
<feComponentTransfer result="3">
	<feFuncR type="linear" Ue="0" intercept="0.368627"/>
	<feFuncG type="linear" Ue="0" intercept="0.509804"/>
	<feFuncB type="linear" Ue="0" intercept="0.847059"/>
	<feFuncA type="linear" xh="0" slope="2"/>
</feComponentTransfer>
<feComposite  in="2" in2="1" operator="arithmetic" k2="1" k3="-1"/>
<feComponentTransfer result="4">
	<feFuncR type="linear" Ue="0" intercept="0.0196078"/>
	<feFuncG type="linear" Ue="0" intercept="0.0588235"/>
	<feFuncB type="linear" Ue="0" intercept="0.14902"/>
	<feFuncA type="linear" xh="0" slope="2"/>
</feComponentTransfer>
<feComposite result="5"  in="3" in2="4" operator="arithmetic" k2="1" k3="1"/>
<feComposite result="6"  in="5" in2="SourceGraphic" operator="atop"/>
</filter>
<g style="filter:url(#filter7);">
<g id="PathID_1" transform="matrix(0.444063, 0, 0, 1.11473, 134.05, 98)" opacity="1">
<path style="fill:#13368C;fill-opacity:1" d="M3.85 -36.65L14.4 -36.65L28.2 -16.35L28.2 -36.65L38.9 -36.65L38.9 0L28.2 0L14.5 -20.1L14.5 0L3.85 0L3.85 -36.65" />
</g>
<g id="PathID_2" transform="matrix(0.444063, 0, 0, 1.11473, 134.05, 98)" opacity="1">
</g>
<g id="PathID_3" transform="matrix(0.444063, 0, 0, 1.11473, 152.75, 98)" opacity="1">
<path style="fill:#13368C;fill-opacity:1" d="M26.25 -6.05L13.4 -6.05L11.6 0L0.05 0L13.8 -36.65L26.15 -36.65L39.95 0L28.05 0L26.25 -6.05M23.9 -14L19.85 -27.15L15.85 -14L23.9 -14" />
</g>
<g id="PathID_4" transform="matrix(0.444063, 0, 0, 1.11473, 152.75, 98)" opacity="1">
</g>
<g id="PathID_5" transform="matrix(0.444063, 0, 0, 1.11473, 168.85, 98)" opacity="1">
<path style="fill:#13368C;fill-opacity:1" d="M1.2 -36.65L35.65 -36.65L35.65 -27.6L24.1 -27.6L24.1 0L12.75 0L12.75 -27.6L1.2 -27.6L1.2 -36.65" />
</g>
<g id="PathID_6" transform="matrix(0.444063, 0, 0, 1.11473, 168.85, 98)" opacity="1">
</g>
<g id="PathID_7" transform="matrix(0.444063, 0, 0, 1.11473, 185.25, 98)" opacity="1">
<path style="fill:#13368C;fill-opacity:1" d="M3.8 -36.65L15.15 -36.65L15.15 -23.85L27.5 -23.85L27.5 -36.65L38.9 -36.65L38.9 0L27.5 0L27.5 -14.85L15.15 -14.85L15.15 0L3.8 0L3.8 -36.65" />
</g>
<g id="PathID_8" transform="matrix(0.444063, 0, 0, 1.11473, 185.25, 98)" opacity="1">
</g>
<g id="PathID_9" transform="matrix(0.444063, 0, 0, 1.11473, 204.2, 98)" opacity="1">
<path style="fill:#13368C;fill-opacity:1" d="M26.25 -6.05L13.4 -6.05L11.6 0L0.05 0L13.8 -36.65L26.15 -36.65L39.95 0L28.05 0L26.25 -6.05M23.9 -14L19.85 -27.15L15.85 -14L23.9 -14" />
</g>
<g id="PathID_10" transform="matrix(0.444063, 0, 0, 1.11473, 204.2, 98)" opacity="1">
</g>
<g id="PathID_11" transform="matrix(0.444063, 0, 0, 1.11473, 221.85, 98)" opacity="1">
<path style="fill:#13368C;fill-opacity:1" d="M3.85 -36.65L14.4 -36.65L28.2 -16.35L28.2 -36.65L38.9 -36.65L38.9 0L28.2 0L14.5 -20.1L14.5 0L3.85 0L3.85 -36.65" />
</g>
<g id="PathID_12" transform="matrix(0.444063, 0, 0, 1.11473, 221.85, 98)" opacity="1">
</g>
<g id="PathID_13" transform="matrix(0.444063, 0, 0, 1.11473, 248.35, 98)" opacity="1">
<path style="fill:#13368C;fill-opacity:1" d="M1.2 -36.65L35.65 -36.65L35.65 -27.6L24.1 -27.6L24.1 0L12.75 0L12.75 -27.6L1.2 -27.6L1.2 -36.65" />
</g>
<g id="PathID_14" transform="matrix(0.444063, 0, 0, 1.11473, 248.35, 98)" opacity="1">
</g>
<g id="PathID_15" transform="matrix(0.444063, 0, 0, 1.11473, 264.75, 98)" opacity="1">
<path style="fill:#13368C;fill-opacity:1" d="M3.75 -36.65L34.1 -36.65L34.1 -28.8L15.1 -28.8L15.1 -23L32.75 -23L32.75 -15.5L15.1 -15.5L15.1 -8.3L34.65 -8.3L34.65 0L3.75 0L3.75 -36.65" />
</g>
<g id="PathID_16" transform="matrix(0.444063, 0, 0, 1.11473, 264.75, 98)" opacity="1">
</g>
<g id="PathID_17" transform="matrix(0.444063, 0, 0, 1.11473, 281.15, 98)" opacity="1">
<path style="fill:#13368C;fill-opacity:1" d="M28.15 -15L38.1 -11.95Q37.1 -7.8 34.95 -5Q32.8 -2.2 29.6 -0.75Q26.4 0.65 21.5 0.65Q15.5 0.65 11.7 -1.05Q7.95 -2.8 5.2 -7.15Q2.45 -11.55 2.45 -18.4Q2.45 -27.5 7.25 -32.4Q12.1 -37.3 20.95 -37.3Q27.9 -37.3 31.85 -34.5Q35.8 -31.7 37.75 -25.9L27.75 -23.7Q27.2 -25.35 26.65 -26.1Q25.7 -27.4 24.3 -28.1Q22.95 -28.8 21.25 -28.8Q17.4 -28.8 15.35 -25.7Q13.8 -23.4 13.8 -18.45Q13.8 -12.35 15.6 -10.1Q17.45 -7.85 20.8 -7.85Q24.05 -7.85 25.7 -9.65Q27.4 -11.5 28.15 -15" />
</g>
<g id="PathID_18" transform="matrix(0.444063, 0, 0, 1.11473, 281.15, 98)" opacity="1">
</g>
<g id="PathID_19" transform="matrix(0.444063, 0, 0, 1.11473, 298.8, 98)" opacity="1">
<path style="fill:#13368C;fill-opacity:1" d="M3.8 -36.65L15.15 -36.65L15.15 -23.85L27.5 -23.85L27.5 -36.65L38.9 -36.65L38.9 0L27.5 0L27.5 -14.85L15.15 -14.85L15.15 0L3.8 0L3.8 -36.65" />
</g>
<g id="PathID_20" transform="matrix(0.444063, 0, 0, 1.11473, 298.8, 98)" opacity="1">
</g>
<g id="PathID_21" transform="matrix(0.444063, 0, 0, 1.11473, 317.75, 98)" opacity="1">
<path style="fill:#13368C;fill-opacity:1" d="M3.85 -36.65L14.4 -36.65L28.2 -16.35L28.2 -36.65L38.9 -36.65L38.9 0L28.2 0L14.5 -20.1L14.5 0L3.85 0L3.85 -36.65" />
</g>
<g id="PathID_22" transform="matrix(0.444063, 0, 0, 1.11473, 317.75, 98)" opacity="1">
</g>
<g id="PathID_23" transform="matrix(0.444063, 0, 0, 1.11473, 336.65, 98)" opacity="1">
<path style="fill:#13368C;fill-opacity:1" d="M2.35 -18.3Q2.35 -27.25 7.3 -32.25Q12.3 -37.3 21.25 -37.3Q30.4 -37.3 35.35 -32.35Q40.3 -27.45 40.3 -18.6Q40.3 -12.15 38.1 -8Q35.95 -3.9 31.85 -1.6Q27.8 0.65 21.7 0.65Q15.5 0.65 11.4 -1.3Q7.35 -3.3 4.85 -7.55Q2.35 -11.85 2.35 -18.3M13.7 -18.25Q13.7 -12.7 15.75 -10.25Q17.8 -7.85 21.3 -7.85Q24.95 -7.85 26.95 -10.2Q28.95 -12.6 28.95 -18.75Q28.95 -23.9 26.85 -26.3Q24.75 -28.7 21.2 -28.7Q17.8 -28.7 15.75 -26.25Q13.7 -23.85 13.7 -18.25" />
</g>
<g id="PathID_24" transform="matrix(0.444063, 0, 0, 1.11473, 336.65, 98)" opacity="1">
</g>
<g id="PathID_25" transform="matrix(0.444063, 0, 0, 1.11473, 355.6, 98)" opacity="1">
<path style="fill:#13368C;fill-opacity:1" d="M3.75 -36.65L15.1 -36.65L15.1 -9.05L32.75 -9.05L32.75 0L3.75 0L3.75 -36.65" />
</g>
<g id="PathID_26" transform="matrix(0.444063, 0, 0, 1.11473, 355.6, 98)" opacity="1">
</g>
<g id="PathID_27" transform="matrix(0.444063, 0, 0, 1.11473, 370.3, 98)" opacity="1">
<path style="fill:#13368C;fill-opacity:1" d="M2.35 -18.3Q2.35 -27.25 7.3 -32.25Q12.3 -37.3 21.25 -37.3Q30.4 -37.3 35.35 -32.35Q40.3 -27.45 40.3 -18.6Q40.3 -12.15 38.1 -8Q35.95 -3.9 31.85 -1.6Q27.8 0.65 21.7 0.65Q15.5 0.65 11.4 -1.3Q7.35 -3.3 4.85 -7.55Q2.35 -11.85 2.35 -18.3M13.7 -18.25Q13.7 -12.7 15.75 -10.25Q17.8 -7.85 21.3 -7.85Q24.95 -7.85 26.95 -10.2Q28.95 -12.6 28.95 -18.75Q28.95 -23.9 26.85 -26.3Q24.75 -28.7 21.2 -28.7Q17.8 -28.7 15.75 -26.25Q13.7 -23.85 13.7 -18.25" />
</g>
<g id="PathID_28" transform="matrix(0.444063, 0, 0, 1.11473, 370.3, 98)" opacity="1">
</g>
<g id="PathID_29" transform="matrix(0.444063, 0, 0, 1.11473, 389.25, 98)" opacity="1">
<path style="fill:#13368C;fill-opacity:1" d="M22.2 -13.3L22.2 -20.95L39.7 -20.95L39.7 -5.25Q34.65 -1.8 30.75 -0.55Q26.9 0.65 21.6 0.65Q15.1 0.65 10.95 -1.55Q6.85 -3.8 4.6 -8.2Q2.35 -12.6 2.35 -18.3Q2.35 -24.3 4.8 -28.75Q7.3 -33.2 12.05 -35.5Q15.8 -37.3 22.1 -37.3Q28.15 -37.3 31.15 -36.2Q34.2 -35.1 36.15 -32.75Q38.15 -30.45 39.2 -26.9L28.25 -25Q27.55 -27.05 25.95 -28.15Q24.35 -29.25 21.85 -29.25Q18.1 -29.25 15.9 -26.65Q13.7 -24.05 13.7 -18.45Q13.7 -12.5 15.9 -9.95Q18.15 -7.4 22.15 -7.4Q24.05 -7.4 25.75 -7.95Q27.5 -8.5 29.75 -9.8L29.75 -13.3L22.2 -13.3" />
</g>
<g id="PathID_30" transform="matrix(0.444063, 0, 0, 1.11473, 389.25, 98)" opacity="1">
</g>
<g id="PathID_31" transform="matrix(0.444063, 0, 0, 1.11473, 408.2, 98)" opacity="1">
<path style="fill:#13368C;fill-opacity:1" d="M4.2 -36.65L15.55 -36.65L15.55 0L4.2 0L4.2 -36.65" />
</g>
<g id="PathID_32" transform="matrix(0.444063, 0, 0, 1.11473, 408.2, 98)" opacity="1">
</g>
<g id="PathID_33" transform="matrix(0.444063, 0, 0, 1.11473, 417, 98)" opacity="1">
<path style="fill:#13368C;fill-opacity:1" d="M3.75 -36.65L34.1 -36.65L34.1 -28.8L15.1 -28.8L15.1 -23L32.75 -23L32.75 -15.5L15.1 -15.5L15.1 -8.3L34.65 -8.3L34.65 0L3.75 0L3.75 -36.65" />
</g>
<g id="PathID_34" transform="matrix(0.444063, 0, 0, 1.11473, 417, 98)" opacity="1">
</g>
<g id="PathID_35" transform="matrix(0.444063, 0, 0, 1.11473, 433.4, 98)" opacity="1">
<path style="fill:#13368C;fill-opacity:1" d="M1.8 -12.1L12.6 -12.8Q12.9 -10.15 14 -8.75Q15.75 -6.55 19 -6.55Q21.4 -6.55 22.7 -7.65Q24.05 -8.8 24.05 -10.3Q24.05 -11.75 22.75 -12.85Q21.5 -14 16.95 -15Q9.5 -16.65 6.35 -19.45Q3.15 -22.2 3.15 -26.55Q3.15 -29.35 4.75 -31.85Q6.4 -34.4 9.7 -35.85Q13 -37.3 18.7 -37.3Q25.75 -37.3 29.4 -34.65Q33.1 -32.05 33.85 -26.35L23.15 -25.75Q22.7 -28.2 21.35 -29.3Q20 -30.45 17.6 -30.45Q15.6 -30.45 14.6 -29.6Q13.65 -28.75 13.65 -27.55Q13.65 -26.65 14.45 -25.95Q15.25 -25.25 18.25 -24.6Q25.65 -23 28.85 -21.35Q32.1 -19.75 33.55 -17.3Q35.05 -14.9 35.05 -11.9Q35.05 -8.35 33.1 -5.35Q31.15 -2.4 27.65 -0.85Q24.15 0.65 18.8 0.65Q9.45 0.65 5.85 -2.95Q2.25 -6.55 1.8 -12.1" />
</g>
<g id="PathID_36" transform="matrix(0.444063, 0, 0, 1.11473, 433.4, 98)" opacity="1">
</g>
<g id="PathID_37" transform="matrix(0.444063, 0, 0, 1.11473, 449.8, 98)" opacity="1">
<path style="fill:#13368C;fill-opacity:1" d="M3.1 -10.2L14 -10.2L14 0L3.1 0L3.1 -10.2" />
</g>
<g id="PathID_38" transform="matrix(0.444063, 0, 0, 1.11473, 449.8, 98)" opacity="1">
</g>
<g id="PathID_39" transform="matrix(0.444063, 0, 0, 1.11473, 457.4, 98)" opacity="1">
<path style="fill:#13368C;fill-opacity:1" d="M4.2 -36.65L15.55 -36.65L15.55 0L4.2 0L4.2 -36.65" />
</g>
<g id="PathID_40" transform="matrix(0.444063, 0, 0, 1.11473, 457.4, 98)" opacity="1">
</g>
<g id="PathID_41" transform="matrix(0.444063, 0, 0, 1.11473, 466.2, 98)" opacity="1">
<path style="fill:#13368C;fill-opacity:1" d="M3.85 -36.65L14.4 -36.65L28.2 -16.35L28.2 -36.65L38.9 -36.65L38.9 0L28.2 0L14.5 -20.1L14.5 0L3.85 0L3.85 -36.65" />
</g>
<g id="PathID_42" transform="matrix(0.444063, 0, 0, 1.11473, 466.2, 98)" opacity="1">
</g>
<g id="PathID_43" transform="matrix(0.444063, 0, 0, 1.11473, 485.15, 98)" opacity="1">
<path style="fill:#13368C;fill-opacity:1" d="M28.15 -15L38.1 -11.95Q37.1 -7.8 34.95 -5Q32.8 -2.2 29.6 -0.75Q26.4 0.65 21.5 0.65Q15.5 0.65 11.7 -1.05Q7.95 -2.8 5.2 -7.15Q2.45 -11.55 2.45 -18.4Q2.45 -27.5 7.25 -32.4Q12.1 -37.3 20.95 -37.3Q27.9 -37.3 31.85 -34.5Q35.8 -31.7 37.75 -25.9L27.75 -23.7Q27.2 -25.35 26.65 -26.1Q25.7 -27.4 24.3 -28.1Q22.95 -28.8 21.25 -28.8Q17.4 -28.8 15.35 -25.7Q13.8 -23.4 13.8 -18.45Q13.8 -12.35 15.6 -10.1Q17.45 -7.85 20.8 -7.85Q24.05 -7.85 25.7 -9.65Q27.4 -11.5 28.15 -15" />
</g>
<g id="PathID_44" transform="matrix(0.444063, 0, 0, 1.11473, 485.15, 98)" opacity="1">
</g>
</g>
<filter id="filter14" x="-0.549524" y="-0.549524" width="2.33262" height="2.3527" >
<feComponentTransfer in="SourceGraphic">
	<feFuncR type="linear" slope="0"/>
	<feFuncG type="linear" slope="0"/>
	<feFuncB type="linear" slope="0"/>
</feComponentTransfer>
<feGaussianBlur stdDeviation="2 2" />
<feOffset result="8" dx="-3.53558" dy="-3.53549"/>
<feComponentTransfer in="SourceGraphic">
	<feFuncR type="linear" slope="0"/>
	<feFuncG type="linear" slope="0"/>
	<feFuncB type="linear" slope="0"/>
</feComponentTransfer>
<feGaussianBlur stdDeviation="2 2" />
<feOffset result="9" dx="3.53558" dy="3.53549"/>
<feComposite  in="8" in2="9" operator="arithmetic" k2="1" k3="-1"/>
<feComponentTransfer result="10">
	<feFuncR type="linear" Ue="0" intercept="0.298039"/>
	<feFuncG type="linear" Ue="0" intercept="0.788235"/>
	<feFuncB type="linear" Ue="0" intercept="1"/>
	<feFuncA type="linear" xh="0" slope="1"/>
</feComponentTransfer>
<feComposite  in="9" in2="8" operator="arithmetic" k2="1" k3="-1"/>
<feComponentTransfer result="11">
	<feFuncR type="linear" Ue="0" intercept="0"/>
	<feFuncG type="linear" Ue="0" intercept="0.356863"/>
	<feFuncB type="linear" Ue="0" intercept="0.509804"/>
	<feFuncA type="linear" xh="0" slope="1"/>
</feComponentTransfer>
<feComposite result="12"  in="10" in2="11" operator="arithmetic" k2="1" k3="1"/>
<feComposite result="13"  in="12" in2="SourceGraphic" operator="atop"/>
</filter>
<g style="filter:url(#filter14);">
<g id="PathID_45" transform="matrix(-0.876137, -4.04399, 4.02047, -0.978413, 81.6, 22.75)" opacity="1">
<linearGradient
id="LinearGradID_1" gradientUnits="userSpaceOnUse" gradientTransform="matrix(0.00498962, 0.00987244, 0.00987244, -0.00498962, -1.35, -0.05)" spreadMethod ="pad" x1="-819.2" y1="0" x2="819.2" y2="0" >
<stop  offset="0" style="stop-color:#1C2D61;stop-opacity:1" />
<stop  offset="0.478431" style="stop-color:#009FE8;stop-opacity:1" />
<stop  offset="1" style="stop-color:#FFFFFF;stop-opacity:1" />
</linearGradient>
<path style="fill:url(#LinearGradID_1) " d="M-1.4 -6.8Q2.2 -3.75 3.35 -1.4Q4.55 1.25 4.4 4.2Q4.3 7.35 2.55 8.15Q0.65 9.05 -0.95 8.55Q-2.8 8 -3.65 5.7Q-4.25 4.2 -3.9 2.85L-3.05 0.45Q-1.95 -2.95 -4.25 -8.35Q-4.55 -9 -3.65 -8.5L-1.4 -6.8" />
</g>
<g id="PathID_46" transform="matrix(-0.876137, -4.04399, 4.02047, -0.978413, 81.6, 22.75)" opacity="1">
</g>
</g>
<filter id="filter21" x="-0.52581" y="-0.52581" width="2.23162" height="2.23162" >
<feComponentTransfer in="SourceGraphic">
	<feFuncR type="linear" slope="0"/>
	<feFuncG type="linear" slope="0"/>
	<feFuncB type="linear" slope="0"/>
</feComponentTransfer>
<feGaussianBlur stdDeviation="0.8 0.8" />
<feOffset result="15" dx="6.55322" dy="4.5886"/>
<feComponentTransfer in="SourceGraphic">
	<feFuncR type="linear" slope="0"/>
	<feFuncG type="linear" slope="0"/>
	<feFuncB type="linear" slope="0"/>
</feComponentTransfer>
<feGaussianBlur stdDeviation="0.8 0.8" />
<feOffset result="16" dx="-6.55322" dy="-4.5886"/>
<feComposite  in="15" in2="16" operator="arithmetic" k2="1" k3="-1"/>
<feComponentTransfer result="17">
	<feFuncR type="linear" Ue="0" intercept="0.298039"/>
	<feFuncG type="linear" Ue="0" intercept="0.788235"/>
	<feFuncB type="linear" Ue="0" intercept="1"/>
	<feFuncA type="linear" xh="0" slope="2"/>
</feComponentTransfer>
<feComposite  in="16" in2="15" operator="arithmetic" k2="1" k3="-1"/>
<feComponentTransfer result="18">
	<feFuncR type="linear" Ue="0" intercept="0"/>
	<feFuncG type="linear" Ue="0" intercept="0.356863"/>
	<feFuncB type="linear" Ue="0" intercept="0.509804"/>
	<feFuncA type="linear" xh="0" slope="2"/>
</feComponentTransfer>
<feComposite result="19"  in="17" in2="18" operator="arithmetic" k2="1" k3="1"/>
<feComposite result="20"  in="19" in2="SourceGraphic" operator="atop"/>
</filter>
<g style="filter:url(#filter21);">
<g id="PathID_47" transform="matrix(2.62019, -0.463047, 0.0587926, 2.51586, 59.8, 117.65)" opacity="1">
<linearGradient
id="LinearGradID_2" gradientUnits="userSpaceOnUse" gradientTransform="matrix(-0.0104218, -0.0120392, -0.0120392, 0.0104218, 2.25, 3.05)" spreadMethod ="pad" x1="-819.2" y1="0" x2="819.2" y2="0" >
<stop  offset="0" style="stop-color:#1C2D61;stop-opacity:1" />
<stop  offset="0.478431" style="stop-color:#009FE8;stop-opacity:1" />
<stop  offset="1" style="stop-color:#FFFFFF;stop-opacity:1" />
</linearGradient>
<path style="fill:url(#LinearGradID_2) " d="M5.85 -14.35Q12 -8.55 13.7 -1.6Q15.4 5.45 11.65 10.05Q9 13.3 4.4 14.15Q-0.15 14.95 -5.35 13.3L-9.1 11.05L-12.3 8Q-14.75 5.05 -14.15 2.3Q-13.55 -0.25 -10.85 -1.6Q-8.2 -3 -5.15 -2.35Q-1.75 -1.65 0.35 1.3Q5.25 8.25 9 7.5Q10.5 7.2 11.45 5.85Q12.35 4.65 12.6 3.1Q13.2 -0.9 11.95 -4.8Q10.35 -9.85 5.85 -14.35" />
</g>
<g id="PathID_48" transform="matrix(2.62019, -0.463047, 0.0587926, 2.51586, 59.8, 117.65)" opacity="1">
</g>
</g>
<filter id="filter28" x="-0.51" y="-0.51" width="2.40479" height="2.41509" >
<feComponentTransfer in="SourceGraphic">
	<feFuncR type="linear" slope="0"/>
	<feFuncG type="linear" slope="0"/>
	<feFuncB type="linear" slope="0"/>
</feComponentTransfer>
<feGaussianBlur stdDeviation="0 0" />
<feOffset result="22" dx="-24.5746" dy="-17.2073"/>
<feComponentTransfer in="SourceGraphic">
	<feFuncR type="linear" slope="0"/>
	<feFuncG type="linear" slope="0"/>
	<feFuncB type="linear" slope="0"/>
</feComponentTransfer>
<feGaussianBlur stdDeviation="0 0" />
<feOffset result="23" dx="24.5746" dy="17.2073"/>
<feComposite  in="22" in2="23" operator="arithmetic" k2="1" k3="-1"/>
<feComponentTransfer result="24">
	<feFuncR type="linear" Ue="0" intercept="0.345098"/>
	<feFuncG type="linear" Ue="0" intercept="0.658824"/>
	<feFuncB type="linear" Ue="0" intercept="0.886275"/>
	<feFuncA type="linear" xh="0" slope="0.410156"/>
</feComponentTransfer>
<feComposite  in="23" in2="22" operator="arithmetic" k2="1" k3="-1"/>
<feComponentTransfer result="25">
	<feFuncR type="linear" Ue="0" intercept="0.0156863"/>
	<feFuncG type="linear" Ue="0" intercept="0.113725"/>
	<feFuncB type="linear" Ue="0" intercept="0.188235"/>
	<feFuncA type="linear" xh="0" slope="0.410156"/>
</feComponentTransfer>
<feComposite result="26"  in="24" in2="25" operator="arithmetic" k2="1" k3="1"/>
<feComposite result="27"  in="26" in2="SourceGraphic" operator="atop"/>
</filter>
<g style="filter:url(#filter28);">
<g id="PathID_49" transform="matrix(0.0983562, -2.05037, 1.8843, 0.293653, 60.05, 75.65)" opacity="1">
<path style="fill:#0E5D96;fill-opacity:1" d="M9.6 -26.1Q6.2 -26.1 2.95 -24.4Q-0.25 -22.7 -1.6 -20.1Q-3.15 -17.3 -1.7 -14.5Q0.2 -10.9 3.2 -7.4L8.45 -1.65Q11.65 1.7 13.25 4.1Q15.65 7.5 16.8 11.3Q19.45 20 14.6 25.75Q10.2 30.95 2 31.85L-7.5 31.4Q-11.75 30.65 -15.45 29L-7.1 28.6Q-3.4 27.6 -0.85 25.45Q1.7 23.25 2.4 20.5Q3.15 17.65 1.65 14.8Q-0.25 11.2 -3.2 7.55L-8.55 1.6Q-11.75 -1.85 -13.35 -4.25Q-15.65 -7.5 -16.8 -11.05Q-19.45 -19.65 -14.55 -25.5Q-10.2 -30.7 -1.95 -31.55Q6.4 -33.15 12.7 -27.95Q14.65 -26.3 15.7 -24.55L16.1 -23.7L15.75 -23.75Q13.35 -26.05 9.6 -26.1" />
</g>
<g id="PathID_50" transform="matrix(0.0983562, -2.05037, 1.8843, 0.293653, 60.05, 75.65)" opacity="1">
</g>
</g>
</svg>
