<?xml version="1.0" encoding="utf-8"?>
<svg version="1.1" id="Layer_1"
xmlns="http://www.w3.org/2000/svg"
xmlns:xlink="http://www.w3.org/1999/xlink"
width="555px" height="400px"
xml:space="preserve">
<g id="PathID_1" transform="matrix(1, 0, 0, 1, 203, -344)" opacity="1">
</g>
<g id="PathID_2" transform="matrix(1, 0, 0, 1, 203, -344)" opacity="1">
</g>
<g id="PathID_3" transform="matrix(1.1875, 0.00036003, 0, 1.1875, 128.8, 220.15)" opacity="1">
<path style="fill:#000000;fill-opacity:1" d="M15.65 -34.3Q13.15 -34.3 11.2 -33.45Q9.3 -32.6 8.25 -31.15Q7.2 -29.7 7.2 -27.8Q7.2 -25.1 9.15 -23.4Q11.1 -21.75 15.45 -20.85Q20 -19.95 22.85 -18.7Q25.7 -17.5 27.2 -15.45Q28.75 -13.4 28.75 -10.15Q28.75 -7.15 27.2 -4.7Q25.7 -2.25 22.75 -0.8Q19.85 0.65 15.8 0.65Q11.95 0.65 9 -0.8Q6.1 -2.25 4.35 -4.85Q2.65 -7.5 2.25 -10.95L5.6 -11.5L5.6 -11.45Q6.05 -8.65 7.4 -6.55Q8.8 -4.5 10.85 -3.4Q12.95 -2.3 15.55 -2.3Q18.4 -2.3 20.6 -3.2Q22.8 -4.15 24.05 -5.85Q25.3 -7.6 25.3 -9.9Q25.3 -11.8 24.4 -13.15Q23.55 -14.5 21.3 -15.55Q19.05 -16.6 14.95 -17.35Q10.9 -18.1 8.45 -19.45Q6 -20.8 4.85 -22.75Q3.75 -24.75 3.75 -27.5Q3.75 -30.25 5.15 -32.5Q6.6 -34.75 9.25 -36Q11.9 -37.3 15.35 -37.3Q21.15 -37.3 24.25 -34.6Q27.4 -31.95 27.65 -26.95L24.4 -26.6Q24.15 -30.4 21.85 -32.35Q19.6 -34.3 15.65 -34.3" />
</g>
<g id="PathID_4" transform="matrix(1.1875, 0.00036003, 0, 1.1875, 128.8, 220.15)" opacity="1">
<path style="fill:none;stroke-width:0.7;stroke-linecap:round;stroke-linejoin:round;stroke-miterlimit:3;stroke:#000000;stroke-opacity:1" d="M15.6 -34.3Q13.15 -34.3 11.15 -33.45Q9.25 -32.6 8.2 -31.15Q7.15 -29.7 7.15 -27.8Q7.15 -25.1 9.15 -23.4Q11.05 -21.75 15.4 -20.85Q19.95 -19.95 22.8 -18.65Q25.65 -17.5 27.15 -15.45Q28.7 -13.4 28.7 -10.1Q28.7 -7.15 27.15 -4.7Q25.65 -2.25 22.75 -0.8Q19.8 0.6 15.8 0.6Q11.9 0.6 8.95 -0.75Q6.05 -2.25 4.35 -4.85Q2.6 -7.5 2.2 -10.95L5.55 -11.5L5.55 -11.4Q6 -8.65 7.35 -6.55Q8.75 -4.5 10.8 -3.4Q12.9 -2.3 15.55 -2.3Q18.35 -2.3 20.6 -3.15Q22.75 -4.15 24.05 -5.85Q25.25 -7.6 25.25 -9.85Q25.25 -11.8 24.35 -13.15Q23.55 -14.5 21.25 -15.55Q19 -16.6 14.95 -17.3Q10.85 -18.1 8.4 -19.4Q5.95 -20.75 4.85 -22.75Q3.75 -24.75 3.75 -27.5Q3.75 -30.25 5.15 -32.5Q6.55 -34.75 9.2 -35.95Q11.85 -37.3 15.3 -37.3Q21.15 -37.3 24.2 -34.6Q27.35 -31.95 27.6 -26.9L24.35 -26.6Q24.1 -30.4 21.8 -32.35Q19.55 -34.3 15.6 -34.3z" />
</g>
<g id="PathID_5" transform="matrix(1.1875, 0.00036003, 0, 1.1875, 165.85, 220.15)" opacity="1">
<path style="fill:#000000;fill-opacity:1" d="M27.7 -21.05L27.7 -36.65L31.15 -36.65L31.15 0L27.7 0L27.7 -17.9L7.8 -17.9L7.8 0L4.35 0L4.35 -36.65L7.8 -36.65L7.8 -21.05L27.7 -21.05" />
</g>
<g id="PathID_6" transform="matrix(1.1875, 0.00036003, 0, 1.1875, 165.85, 220.15)" opacity="1">
<path style="fill:none;stroke-width:0.7;stroke-linecap:round;stroke-linejoin:round;stroke-miterlimit:3;stroke:#000000;stroke-opacity:1" d="M27.65 -21L27.65 -36.6L31.1 -36.6L31.1 0L27.65 0L27.65 -17.85L7.8 -17.85L7.8 0L4.35 0L4.35 -36.6L7.8 -36.6L7.8 -21L27.65 -21z" />
</g>
<g id="PathID_7" transform="matrix(1.1875, 0.00036003, 0, 1.1875, 208.05, 220.15)" opacity="1">
<path style="fill:#000000;fill-opacity:1" d="M2.7 -18.25Q2.7 -24 4.9 -28.3Q7.1 -32.6 11 -34.95Q14.9 -37.3 19.8 -37.3Q24.7 -37.3 28.6 -34.95Q32.5 -32.6 34.7 -28.3Q36.9 -24 36.9 -18.3Q36.9 -12.65 34.65 -8.35Q32.45 -4.05 28.55 -1.7Q24.65 0.65 19.8 0.65Q14.95 0.65 11.05 -1.65Q7.15 -4 4.9 -8.25Q2.7 -12.55 2.7 -18.25M19.75 -34.3Q15.95 -34.3 12.85 -32.4Q9.8 -30.5 8.05 -26.85Q6.3 -23.2 6.3 -18.15Q6.3 -13 8.15 -9.4Q10.05 -5.85 13.1 -4.05Q16.2 -2.3 19.75 -2.3Q23.6 -2.3 26.65 -4.2Q29.75 -6.1 31.5 -9.7Q33.3 -13.3 33.3 -18.2Q33.3 -23.1 31.55 -26.75Q29.8 -30.4 26.7 -32.35Q23.65 -34.3 19.75 -34.3" />
</g>
<g id="PathID_8" transform="matrix(1.1875, 0.00036003, 0, 1.1875, 208.05, 220.15)" opacity="1">
<path style="fill:none;stroke-width:0.7;stroke-linecap:round;stroke-linejoin:round;stroke-miterlimit:3;stroke:#000000;stroke-opacity:1" d="M2.65 -18.2Q2.65 -23.95 4.85 -28.3Q7.05 -32.55 10.95 -34.9Q14.85 -37.25 19.75 -37.25Q24.65 -37.25 28.55 -34.9Q32.45 -32.6 34.65 -28.25Q36.85 -23.95 36.85 -18.25Q36.85 -12.6 34.6 -8.35Q32.4 -4 28.5 -1.65Q24.6 0.65 19.75 0.65Q14.9 0.65 11 -1.65Q7.1 -3.95 4.85 -8.2Q2.65 -12.55 2.65 -18.2z" />
<path style="fill:none;stroke-width:0.7;stroke-linecap:round;stroke-linejoin:round;stroke-miterlimit:3;stroke:#000000;stroke-opacity:1" d="M19.7 -34.25Q15.9 -34.25 12.8 -32.35Q9.75 -30.45 8 -26.8Q6.25 -23.15 6.25 -18.15Q6.25 -12.95 8.1 -9.35Q10 -5.8 13.05 -4.05Q16.15 -2.25 19.7 -2.25Q23.55 -2.25 26.6 -4.15Q29.7 -6.05 31.45 -9.65Q33.25 -13.25 33.25 -18.2Q33.25 -23.05 31.5 -26.75Q29.75 -30.35 26.65 -32.35Q23.6 -34.25 19.7 -34.25z" />
</g>
<g id="PathID_9" transform="matrix(1.1875, 0.00036003, 0, 1.1875, 255, 220.2)" opacity="1">
<path style="fill:#000000;fill-opacity:1" d="M29.45 -26.75Q29.45 -22.8 27.15 -20.3Q24.9 -17.85 20.65 -17.1L20.65 -16.95Q21.7 -16.65 22.6 -15.8Q23.55 -14.95 24.7 -13.1Q25.85 -11.25 27.45 -7.95L31.35 0L27.45 0L24.55 -6.1Q22.6 -10.25 21.1 -12.4Q19.65 -14.55 17.8 -15.5Q16 -16.45 13.25 -16.45L7.8 -16.45L7.8 0L4.35 0L4.35 -36.65L17.7 -36.65Q21.4 -36.65 24 -35.5Q26.65 -34.35 28.05 -32.1Q29.45 -29.9 29.45 -26.75M25.8 -26.6Q25.8 -30.1 23.75 -31.8Q21.7 -33.5 17.5 -33.5L7.8 -33.5L7.8 -19.6L17.35 -19.6Q21.45 -19.6 23.6 -21.35Q25.8 -23.15 25.8 -26.6" />
</g>
<g id="PathID_10" transform="matrix(1.1875, 0.00036003, 0, 1.1875, 255, 220.2)" opacity="1">
<path style="fill:none;stroke-width:0.7;stroke-linecap:round;stroke-linejoin:round;stroke-miterlimit:3;stroke:#000000;stroke-opacity:1" d="M29.45 -26.75Q29.45 -22.8 27.15 -20.25Q24.9 -17.8 20.65 -17.05L20.65 -16.95Q21.7 -16.65 22.6 -15.8Q23.55 -14.9 24.7 -13.05Q25.8 -11.25 27.4 -7.9L31.35 0L27.4 0L24.55 -6.05Q22.6 -10.25 21.1 -12.4Q19.65 -14.55 17.8 -15.45Q15.95 -16.45 13.25 -16.45L7.8 -16.4L7.8 0L4.35 0L4.35 -36.65L17.7 -36.65Q21.4 -36.65 23.95 -35.45Q26.6 -34.3 28.05 -32.1Q29.45 -29.85 29.45 -26.75z" />
<path style="fill:none;stroke-width:0.7;stroke-linecap:round;stroke-linejoin:round;stroke-miterlimit:3;stroke:#000000;stroke-opacity:1" d="M25.8 -26.6Q25.8 -30.05 23.75 -31.8Q21.7 -33.5 17.5 -33.5L7.8 -33.5L7.8 -19.6L17.35 -19.6Q21.45 -19.6 23.6 -21.3Q25.8 -23.1 25.8 -26.6z" />
</g>
<g id="PathID_11" transform="matrix(1.1875, 0.00036003, 0, 1.1875, 293.35, 220.2)" opacity="1">
<path style="fill:#000000;fill-opacity:1" d="M15.95 -33.5L15.95 0L12.5 0L12.5 -33.5L1.3 -33.5L1.3 -36.65L27.2 -36.65L27.2 -33.5L15.95 -33.5" />
</g>
<g id="PathID_12" transform="matrix(1.1875, 0.00036003, 0, 1.1875, 293.35, 220.2)" opacity="1">
<path style="fill:none;stroke-width:0.7;stroke-linecap:round;stroke-linejoin:round;stroke-miterlimit:3;stroke:#000000;stroke-opacity:1" d="M15.9 -33.5L15.9 0L12.45 0L12.45 -33.5L1.25 -33.5L1.25 -36.65L27.15 -36.65L27.15 -33.5L15.9 -33.5z" />
</g>
<g id="PathID_13" transform="matrix(1.1875, 0.00036003, 0, 1.1875, 327.2, 220.2)" opacity="1">
<path style="fill:#000000;fill-opacity:1" d="M25.35 -3.1L25.35 0L4.35 0L4.35 -36.65L7.8 -36.65L7.8 -3.1L25.35 -3.1" />
</g>
<g id="PathID_14" transform="matrix(1.1875, 0.00036003, 0, 1.1875, 327.2, 220.2)" opacity="1">
<path style="fill:none;stroke-width:0.7;stroke-linecap:round;stroke-linejoin:round;stroke-miterlimit:3;stroke:#000000;stroke-opacity:1" d="M25.35 -3.05L25.35 0L4.35 0L4.35 -36.6L7.8 -36.6L7.8 -3.05L25.35 -3.05z" />
</g>
<g id="PathID_15" transform="matrix(1.1875, 0.00036003, 0, 1.1875, 353, 220.2)" opacity="1">
<path style="fill:#000000;fill-opacity:1" d="M26.4 -36.65L30.25 -36.65L16.75 -15.8L16.75 0L13.3 0L13.3 -15.8L0.3 -36.65L4.25 -36.65L15.25 -18.9L26.4 -36.65" />
</g>
<g id="PathID_16" transform="matrix(1.1875, 0.00036003, 0, 1.1875, 353, 220.2)" opacity="1">
<path style="fill:none;stroke-width:0.7;stroke-linecap:round;stroke-linejoin:round;stroke-miterlimit:3;stroke:#000000;stroke-opacity:1" d="M26.35 -36.6L30.2 -36.6L16.7 -15.75L16.7 0L13.25 0L13.25 -15.75L0.3 -36.6L4.2 -36.6L15.25 -18.85L26.35 -36.6z" />
</g>
<g id="PathID_17" transform="matrix(1.1875, 0.00036003, 0, 1.1875, 389.1, 220.2)" opacity="1">
<path style="fill:#000000;fill-opacity:1" d="M9.55 -9.05L7.5 -9.05L6.6 -28.4L6.6 -36.65L10.4 -36.65L10.4 -28.4L9.55 -9.05M6.35 0L6.35 -4.65L10.7 -4.65L10.7 0L6.35 0" />
</g>
<g id="PathID_18" transform="matrix(1.1875, 0.00036003, 0, 1.1875, 389.1, 220.2)" opacity="1">
<path style="fill:none;stroke-width:0.7;stroke-linecap:round;stroke-linejoin:round;stroke-miterlimit:3;stroke:#000000;stroke-opacity:1" d="M9.5 -9L7.5 -9L6.55 -28.35L6.55 -36.6L10.35 -36.6L10.35 -28.35L9.5 -9z" />
<path style="fill:none;stroke-width:0.7;stroke-linecap:round;stroke-linejoin:round;stroke-miterlimit:3;stroke:#000000;stroke-opacity:1" d="M6.3 0L6.3 -4.6L10.7 -4.6L10.7 0L6.3 0z" />
</g>
</svg>
